# xmcd
#
# Track frame offsets:
#	150
#	15387
#	42109
#	72028
#	97373
#	112149
#	131070
#	146115
#	165651
#	184422
#	207173
#	229388
#	245611
#	264216
#	280725
#	296677
#	310817
#
# Disc length: 4394
#
# Revision: 2
# Processed by: cddbd v1.5.1PL0 Copyright (c) Steve Scherf et al.
# Submitted via: audiograbber 1.83.01
# Normalized: r1:DSETVAR1
#
DISCID=05112811
DTITLE=Various Artist - MTV Gold 2001 SE vol. 2 cd 1
DYEAR=2001
DGENRE=Pop
TTITLE0=Britney Spears - I'm a slave 4 U
TTITLE1=Janet feat. Missy Elliot - Son of a gun
TTITLE2=Deja vu - I can't stop
TTITLE3=Michael Jackson - You rock my world
TTITLE4=Afroman - Because i got high
TTITLE5=Nelly and st. lunatics - Batter up
TTITLE6=Jamiroquai - You give me something
TTITLE7=Faithless - Mohammed Ali
TTITLE8=Modjo - What i mean
TTITLE9=Alicia Keys - A woman's worth
TTITLE10=U2 - Walk on
TTITLE11=Linkin park - In the end
TTITLE12=Gorillaz - Rock the house
TTITLE13=Crazy town - Revolving door
TTITLE14=Incubus - I wish you were here
TTITLE15=Artfull dodger and Melanie Blot - 24-7
TTITLE16=The cranberries - Analyse
EXTD=
EXTT0=
EXTT1=
EXTT2=
EXTT3=
EXTT4=
EXTT5=
EXTT6=
EXTT7=
EXTT8=
EXTT9=
EXTT10=
EXTT11=
EXTT12=
EXTT13=
EXTT14=
EXTT15=
EXTT16=
PLAYORDER=
